<svg xmlns="http://www.w3.org/2000/svg" viewBox="0 0 480 270" width="480" height="270">
  <defs>
    <radialGradient id="sky" cx="50%" cy="30%" r="70%">
      <stop offset="0%" stop-color="#0a0a2a"/>
      <stop offset="100%" stop-color="#000008"/>
    </radialGradient>
    <radialGradient id="nebula1" cx="30%" cy="40%" r="40%">
      <stop offset="0%" stop-color="#4a0080" stop-opacity="0.3"/>
      <stop offset="100%" stop-color="#4a0080" stop-opacity="0"/>
    </radialGradient>
    <radialGradient id="nebula2" cx="70%" cy="60%" r="40%">
      <stop offset="0%" stop-color="#002880" stop-opacity="0.25"/>
      <stop offset="100%" stop-color="#002880" stop-opacity="0"/>
    </radialGradient>
  </defs>
  <rect width="480" height="270" fill="url(#sky)"/>
  <rect width="480" height="270" fill="url(#nebula1)"/>
  <rect width="480" height="270" fill="url(#nebula2)"/>
  <!-- Étoiles nombreuses -->
  <circle cx="20" cy="15" r="1" fill="white" opacity="0.8"/>
  <circle cx="55" cy="30" r="1.5" fill="white" opacity="0.9"/>
  <circle cx="90" cy="10" r="1" fill="white" opacity="0.7"/>
  <circle cx="130" cy="25" r="2" fill="white" opacity="0.95"/>
  <circle cx="165" cy="8" r="1" fill="white" opacity="0.6"/>
  <circle cx="200" cy="35" r="1.5" fill="white" opacity="0.8"/>
  <circle cx="240" cy="12" r="1" fill="white" opacity="0.7"/>
  <circle cx="275" cy="28" r="2" fill="#c0e8ff" opacity="0.9"/>
  <circle cx="310" cy="5" r="1" fill="white" opacity="0.6"/>
  <circle cx="350" cy="20" r="1.5" fill="white" opacity="0.8"/>
  <circle cx="390" cy="15" r="1" fill="#ffe0c0" opacity="0.9"/>
  <circle cx="430" cy="30" r="2" fill="white" opacity="0.7"/>
  <circle cx="460" cy="8" r="1" fill="white" opacity="0.8"/>
  <circle cx="35" cy="65" r="1.5" fill="white" opacity="0.5"/>
  <circle cx="75" cy="55" r="1" fill="white" opacity="0.7"/>
  <circle cx="110" cy="75" r="1.5" fill="#ffe0c0" opacity="0.6"/>
  <circle cx="150" cy="60" r="1" fill="white" opacity="0.8"/>
  <circle cx="185" cy="80" r="2" fill="white" opacity="0.7"/>
  <circle cx="225" cy="50" r="1" fill="white" opacity="0.6"/>
  <circle cx="260" cy="70" r="1.5" fill="white" opacity="0.8"/>
  <circle cx="300" cy="55" r="1" fill="white" opacity="0.7"/>
  <circle cx="340" cy="75" r="2" fill="#c0e8ff" opacity="0.85"/>
  <circle cx="375" cy="45" r="1" fill="white" opacity="0.6"/>
  <circle cx="415" cy="65" r="1.5" fill="white" opacity="0.7"/>
  <circle cx="455" cy="50" r="1" fill="#ffe0c0" opacity="0.8"/>
  <circle cx="45" cy="110" r="1" fill="white" opacity="0.4"/>
  <circle cx="95" cy="100" r="1.5" fill="white" opacity="0.5"/>
  <circle cx="140" cy="115" r="1" fill="white" opacity="0.6"/>
  <circle cx="175" cy="95" r="2" fill="white" opacity="0.5"/>
  <circle cx="220" cy="108" r="1" fill="white" opacity="0.4"/>
  <circle cx="265" cy="120" r="1.5" fill="#c0e8ff" opacity="0.5"/>
  <circle cx="310" cy="100" r="1" fill="white" opacity="0.6"/>
  <circle cx="355" cy="112" r="1.5" fill="white" opacity="0.4"/>
  <circle cx="400" cy="98" r="1" fill="white" opacity="0.5"/>
  <circle cx="450" cy="110" r="2" fill="#ffe0c0" opacity="0.6"/>
  <!-- Voie lactée -->
  <path d="M0,140 Q120,120 240,150 Q360,175 480,140" fill="none" stroke="white" stroke-width="30" opacity="0.04"/>
  <path d="M0,145 Q120,125 240,155 Q360,180 480,145" fill="none" stroke="white" stroke-width="15" opacity="0.05"/>
  <!-- Étoile filante -->
  <line x1="80" y1="50" x2="140" y2="80" stroke="white" stroke-width="1.5" opacity="0.6"/>
  <circle cx="80" cy="50" r="2" fill="white" opacity="0.8"/>
  <!-- Contour -->
  <rect x="0" y="0" width="480" height="270" fill="none" stroke="#4a4aaa" stroke-width="4"/>
  <rect x="6" y="6" width="468" height="258" fill="none" stroke="#8080cc" stroke-width="1.5" opacity="0.4"/>
</svg>
