<svg xmlns="http://www.w3.org/2000/svg" viewBox="0 0 256 256" width="256" height="256">
  <defs>
    <radialGradient id="bg" cx="50%" cy="50%" r="50%">
      <stop offset="0%" stop-color="#0a0a1a"/>
      <stop offset="100%" stop-color="#000004"/>
    </radialGradient>
    <radialGradient id="ghostbody" cx="50%" cy="40%" r="60%">
      <stop offset="0%" stop-color="#d0e8ff"/>
      <stop offset="100%" stop-color="#8ab0d8"/>
    </radialGradient>
  </defs>
  <circle cx="128" cy="128" r="128" fill="url(#bg)"/>
  <!-- Étoiles fond -->
  <circle cx="30" cy="40" r="1.5" fill="white" opacity="0.6"/>
  <circle cx="220" cy="30" r="1" fill="white" opacity="0.5"/>
  <circle cx="60" cy="200" r="1.5" fill="white" opacity="0.4"/>
  <circle cx="200" cy="190" r="1" fill="white" opacity="0.6"/>
  <circle cx="40" cy="130" r="1" fill="white" opacity="0.3"/>
  <circle cx="210" cy="130" r="1.5" fill="white" opacity="0.4"/>
  <!-- Ombre/sol -->
  <ellipse cx="128" cy="240" rx="50" ry="10" fill="#4a6eff" opacity="0.2"/>
  <!-- Corps fantôme -->
  <path d="M76,110 Q76,60 128,55 Q180,60 180,110 L180,185 Q165,175 150,185 Q135,175 128,185 Q121,175 106,185 Q91,175 76,185 Z" fill="url(#ghostbody)" opacity="0.9"/>
  <!-- Reflet fantôme -->
  <path d="M88,90 Q88,70 128,65 Q140,68 150,78" fill="none" stroke="white" stroke-width="3" opacity="0.4" stroke-linecap="round"/>
  <!-- Yeux creux fantôme -->
  <ellipse cx="108" cy="110" rx="16" ry="20" fill="#1a2a5a"/>
  <ellipse cx="148" cy="110" rx="16" ry="20" fill="#1a2a5a"/>
  <ellipse cx="108" cy="112" rx="10" ry="14" fill="#4a6eff"/>
  <ellipse cx="148" cy="112" rx="10" ry="14" fill="#4a6eff"/>
  <circle cx="108" cy="108" r="4" fill="#8ab0ff" opacity="0.8"/>
  <circle cx="148" cy="108" r="4" fill="#8ab0ff" opacity="0.8"/>
  <!-- Bouche spectrale -->
  <path d="M104,140 Q108,148 114,140 Q118,148 124,140 Q128,148 132,140 Q136,148 142,140 Q146,148 152,140" stroke="#1a2a5a" stroke-width="3" fill="none"/>
  <!-- Chaîne fantôme -->
  <path d="M80,200 Q60,180 65,155 Q70,145 80,148" stroke="#8ab0d8" stroke-width="2" fill="none" stroke-dasharray="6,4" opacity="0.6"/>
  <!-- Effet brume -->
  <ellipse cx="128" cy="195" rx="55" ry="20" fill="#8ab0d8" opacity="0.15"/>
  <ellipse cx="128" cy="210" rx="45" ry="14" fill="#8ab0d8" opacity="0.1"/>
  <circle cx="128" cy="128" r="126" fill="none" stroke="#4a6eff" stroke-width="2" opacity="0.4"/>
</svg>
