<svg xmlns="http://www.w3.org/2000/svg" viewBox="0 0 256 256" width="256" height="256">
  <defs>
    <radialGradient id="bg" cx="50%" cy="50%" r="50%">
      <stop offset="0%" stop-color="#1a2e1a"/>
      <stop offset="100%" stop-color="#0a120a"/>
    </radialGradient>
  </defs>
  <circle cx="128" cy="128" r="128" fill="url(#bg)"/>
  <!-- Arc -->
  <path d="M80 60 Q128 110 80 196" fill="none" stroke="#8B6914" stroke-width="7" stroke-linecap="round"/>
  <path d="M80 60 Q128 110 80 196" fill="none" stroke="#d4a017" stroke-width="3" stroke-linecap="round"/>
  <!-- Corde -->
  <line x1="80" y1="60" x2="80" y2="196" stroke="#c8a96e" stroke-width="2"/>
  <!-- Flèche encochée -->
  <line x1="80" y1="128" x2="190" y2="100" stroke="#c8a96e" stroke-width="3"/>
  <polygon points="190,100 178,93 183,106" fill="#d4a017"/>
  <!-- Plumes flèche -->
  <path d="M80,128 L70,120 L75,128 L68,134 Z" fill="#e52521"/>
  <!-- Capuche archer -->
  <ellipse cx="128" cy="90" rx="36" ry="38" fill="#2d5a1b"/>
  <ellipse cx="128" cy="88" rx="28" ry="30" fill="#3d7a28"/>
  <!-- Visage -->
  <ellipse cx="128" cy="96" rx="20" ry="22" fill="#d4a574"/>
  <!-- Yeux -->
  <ellipse cx="121" cy="92" rx="4" ry="4.5" fill="#1a1a1a"/>
  <ellipse cx="135" cy="92" rx="4" ry="4.5" fill="#1a1a1a"/>
  <circle cx="122" cy="91" r="1.5" fill="white"/>
  <circle cx="136" cy="91" r="1.5" fill="white"/>
  <!-- Sourcils -->
  <path d="M117,87 Q121,85 125,87" stroke="#6b3a1a" stroke-width="2" fill="none"/>
  <path d="M131,87 Q135,85 139,87" stroke="#6b3a1a" stroke-width="2" fill="none"/>
  <!-- Nez bouche -->
  <ellipse cx="128" cy="98" rx="3" ry="2" fill="#c0905a" opacity="0.6"/>
  <path d="M123,105 Q128,109 133,105" stroke="#a0704a" stroke-width="1.5" fill="none"/>
  <!-- Carquois -->
  <rect x="155" y="65" width="18" height="55" rx="4" fill="#6b3a1a" transform="rotate(-10,155,65)"/>
  <line x1="158" y1="68" x2="165" y2="115" stroke="#c8a96e" stroke-width="1" opacity="0.5"/>
  <!-- Flèches dans carquois -->
  <line x1="162" y1="62" x2="160" y2="120" stroke="#c8a96e" stroke-width="2"/>
  <line x1="166" y1="60" x2="164" y2="118" stroke="#d4a017" stroke-width="2"/>
  <!-- Corps -->
  <rect x="98" y="125" width="60" height="65" rx="8" fill="#2d5a1b"/>
  <!-- Détail veste -->
  <path d="M98,135 L128,145 L158,135" fill="#3d7a28" opacity="0.5"/>
  <circle cx="128" cy="128" r="126" fill="none" stroke="#6abf40" stroke-width="3" opacity="0.5"/>
</svg>
