<svg xmlns="http://www.w3.org/2000/svg" viewBox="0 0 256 256" width="256" height="256">
  <defs>
    <radialGradient id="bg" cx="50%" cy="50%" r="50%">
      <stop offset="0%" stop-color="#1a2a4a"/>
      <stop offset="100%" stop-color="#0a0f1e"/>
    </radialGradient>
    <radialGradient id="glow" cx="50%" cy="40%" r="50%">
      <stop offset="0%" stop-color="#4a9eff" stop-opacity="0.3"/>
      <stop offset="100%" stop-color="#4a9eff" stop-opacity="0"/>
    </radialGradient>
  </defs>
  <circle cx="128" cy="128" r="128" fill="url(#bg)"/>
  <circle cx="128" cy="128" r="128" fill="url(#glow)"/>
  <!-- Casque -->
  <ellipse cx="128" cy="105" rx="46" ry="50" fill="#b0c8e8"/>
  <rect x="82" y="105" width="92" height="38" rx="4" fill="#8aaac8"/>
  <!-- Visière -->
  <rect x="94" y="108" width="68" height="22" rx="3" fill="#1a2a3a"/>
  <!-- Fente visière -->
  <rect x="96" y="116" width="64" height="6" rx="2" fill="#4a9eff" opacity="0.7"/>
  <!-- Cimier / plume -->
  <ellipse cx="128" cy="62" rx="10" ry="28" fill="#e52521" transform="rotate(-5,128,62)"/>
  <ellipse cx="136" cy="60" rx="7" ry="22" fill="#ff6b6b" transform="rotate(5,136,60)"/>
  <!-- Ombre menton -->
  <rect x="104" y="140" width="48" height="12" rx="6" fill="#6a8aaa"/>
  <!-- Épaulières -->
  <ellipse cx="70" cy="170" rx="30" ry="18" fill="#8aaac8"/>
  <ellipse cx="186" cy="170" rx="30" ry="18" fill="#8aaac8"/>
  <ellipse cx="70" cy="168" rx="24" ry="13" fill="#b0c8e8"/>
  <ellipse cx="186" cy="168" rx="24" ry="13" fill="#b0c8e8"/>
  <!-- Corps armure -->
  <rect x="90" y="155" width="76" height="70" rx="8" fill="#8aaac8"/>
  <rect x="98" y="163" width="60" height="55" rx="6" fill="#b0c8e8"/>
  <!-- Détail plastron -->
  <line x1="128" y1="163" x2="128" y2="218" stroke="#6a8aaa" stroke-width="2"/>
  <ellipse cx="128" cy="180" rx="14" ry="10" fill="#4a9eff" opacity="0.5"/>
  <!-- Contour -->
  <circle cx="128" cy="128" r="126" fill="none" stroke="#4a9eff" stroke-width="3" opacity="0.6"/>
</svg>
